<svg width="44" height="44" viewBox="0 0 44 44" fill="none" xmlns="http://www.w3.org/2000/svg">
<circle cx="22" cy="22" r="20"/>
<circle cx="22" cy="22" r="21.5" stroke="#739B7B"/>
<path d="M18.9968 27.7129C18.9968 26.2398 19.4255 24.8669 20.1649 23.7119H13.5707C12.1509 23.7119 11 24.8629 11 26.2826V27.3343C11 27.9882 11.2039 28.6258 11.5834 29.1584C13.1865 31.4083 15.7168 32.6258 19.1032 32.8279L19.6993 30.8701C19.2486 29.9109 18.9968 28.84 18.9968 27.7129ZM20.1407 10C23.2973 10 25.8561 12.5589 25.8561 15.7155C25.8561 18.8722 23.2973 21.4311 20.1407 21.4311C16.9841 21.4311 14.4252 18.8722 14.4252 15.7155C14.4252 12.5589 16.9841 10 20.1407 10ZM32.7143 27.7129C32.7143 31.1851 29.8995 34 26.4273 34C25.3214 34 24.2822 33.7145 23.3794 33.2131L20.8799 33.9737C20.4424 34.1069 20.0335 33.6979 20.1667 33.2605L20.9275 30.7616C20.4259 29.8586 20.1402 28.8191 20.1402 27.7129C20.1402 24.2406 22.9551 21.4258 26.4273 21.4258C29.8995 21.4258 32.7143 24.2406 32.7143 27.7129ZM24.1411 25.9983C23.8255 25.9983 23.5696 26.2542 23.5696 26.5698C23.5696 26.8855 23.8255 27.1414 24.1411 27.1414H28.7135C29.0291 27.1414 29.285 26.8855 29.285 26.5698C29.285 26.2542 29.0291 25.9983 28.7135 25.9983H24.1411ZM23.5696 28.856C23.5696 29.1717 23.8255 29.4275 24.1411 29.4275H26.4273C26.743 29.4275 26.9989 29.1717 26.9989 28.856C26.9989 28.5403 26.743 28.2845 26.4273 28.2845H24.1411C23.8255 28.2845 23.5696 28.5403 23.5696 28.856Z" fill="white"/>
</svg>
